# xmcd
#
# Track frame offsets:
#	150
#	14451
#	30287
#	48900
#	63260
#	82462
#	96708
#	109732
#	125807
#	142180
#	157747
#	175330
#	191180
#	209558
#	225358
#
# Disc length: 3222 seconds
#
# Revision: 1
# Processed by: cddbd v1.5.2PL0 Copyright (c) Steve Scherf et al.
# Submitted via: audiograbber 1.83.01
#
DISCID=d80c940f
DTITLE=All Star Karaoke - Mixed Country Vol 11 Disc 2
DYEAR=2008
DGENRE=Country
TTITLE0=Joe Nichols - Tequila Makes Her Clothes Fall Off
TTITLE1=Josh Turner - Your Man
TTITLE2=Kellie Pickler - Didn't You Know How Much I Loved You
TTITLE3=Kellie Pickler - My Angel
TTITLE4=Kellie Pickler - Small Town Girl
TTITLE5=Kellie Pickler - Things That Never Cross A Man's Mind
TTITLE6=Mark Chesnutt - Rollin' With The Flow
TTITLE7=Montgomery Gentry - What Do Ya Think About That
TTITLE8=Rodney Atkins - If You're Going Through Hell (Before The Devil Even Kno
TTITLE8=ws)
TTITLE9=Rodney Atkins - These Are My People
TTITLE10=Rodney Atkins - Watching You
TTITLE11=Sara Evans - As If
TTITLE12=Tim McGraw - If You're Reading This
TTITLE13=Toby Keith - Love Me If You Can
TTITLE14=Trent Tomlinson - Just Might Have Her Radio On
EXTD=
EXTT0=
EXTT1=
EXTT2=
EXTT3=
EXTT4=
EXTT5=
EXTT6=
EXTT7=
EXTT8=
EXTT9=
EXTT10=
EXTT11=
EXTT12=
EXTT13=
EXTT14=
PLAYORDER=
